<svg width="211" height="173" viewBox="0 0 211 173" fill="none" xmlns="http://www.w3.org/2000/svg">
<path d="M86.9185 0.0686035H51.3604V36.5891H86.9185V0.0686035Z" fill="#C56D44"/>
<path d="M159.629 33.906V108.5C159.633 108.898 159.64 109.297 159.643 109.699C159.218 109.719 158.796 109.74 158.371 109.761H124.301V59.1989C124.308 59.0168 124.311 58.8381 124.318 58.656C124.356 57.4501 124.373 56.2374 124.318 55.028V36.5857H90.0185C88.9863 36.5857 87.9541 36.5857 86.9185 36.5857C87.6558 35.8677 88.3896 35.1496 89.1269 34.4316L122.861 0.639022C123.06 0.426015 123.262 0.213007 123.461 0C123.574 0.0137424 123.745 0.0377916 123.951 0.068712C128.78 0.745526 132.871 1.43608 133.903 1.75903C139.332 3.47339 144.218 6.4074 148.248 10.2415C154.616 16.3054 158.837 24.6127 159.633 33.9025L159.629 33.906Z" fill="#F9F7F0"/>
<path d="M86.9185 52.1492V109.764H51.3604V72.2165L86.9185 36.5928V52.1526V52.1492Z" fill="#F9F7F0"/>
<path d="M40.1294 146.494V170.977H28.4596V145.886C28.4596 141.241 24.6977 137.476 20.0647 137.476H11.1623V170.98H0V126.173H19.8418C31.0624 126.173 40.1294 135.277 40.1294 146.498V146.494Z" fill="#F9F7F0"/>
<path d="M80.6566 131.412C77.3027 127.966 72.4332 126.218 66.1884 126.218C59.9437 126.218 55.0707 127.966 51.7169 131.412C47.276 135.46 45.0229 141.544 45.0229 149.508C45.0229 157.471 47.2726 163.401 51.71 167.6C55.0639 171.049 59.9369 172.801 66.185 172.801C72.4332 172.801 77.3062 171.052 80.66 167.596C85.0769 163.398 87.3197 157.313 87.3197 149.508C87.3197 141.702 85.0769 135.46 80.6531 131.412H80.6566ZM75.8693 155.493C75.3926 157.228 74.6793 158.698 73.7294 159.894C71.857 162.25 69.3914 163.391 66.1884 163.391C62.9855 163.391 60.4959 162.247 58.5995 159.887C56.6756 157.499 55.6983 154.008 55.6983 149.504C55.6983 145 56.6722 141.51 58.5995 139.122C60.4993 136.765 62.9786 135.618 66.1884 135.618C69.3983 135.618 71.857 136.765 73.7294 139.129C75.6292 141.53 76.5894 145.017 76.5894 149.501C76.5894 151.751 76.3494 153.754 75.8693 155.489V155.493Z" fill="#F9F7F0"/>
<path d="M128.718 158.323C128.718 162.456 127.103 165.933 123.92 168.661C120.779 171.351 116.328 172.715 110.687 172.715C105.046 172.715 100.348 171.379 97.0108 168.744C93.6055 166.054 91.8806 162.319 91.8806 157.636V156.667H102.083L102.199 157.502C102.443 159.237 102.913 160.529 103.588 161.336C104.847 162.834 107.12 163.594 110.344 163.594C112.347 163.594 113.975 163.381 115.189 162.961C117.312 162.216 118.303 160.955 118.303 158.983C118.303 157.925 117.861 157.159 116.918 156.571C115.796 155.894 113.927 155.269 111.379 154.723L106.815 153.72C102.165 152.689 99.0307 151.583 97.2371 150.336C94.1405 148.209 92.5665 144.87 92.5665 140.41C92.5665 136.366 94.0788 132.955 97.052 130.275C99.9977 127.623 104.332 126.28 109.929 126.28C114.613 126.28 118.674 127.53 122 130.004C125.405 132.532 127.212 136.236 127.381 141.008L127.415 142.008H117.052L116.997 141.097C116.863 138.909 115.923 137.401 114.126 136.494C112.864 135.861 111.249 135.538 109.322 135.538C107.199 135.538 105.509 135.947 104.288 136.751C103.166 137.493 102.642 138.455 102.642 139.778C102.642 140.929 103.132 141.729 104.188 142.303C104.747 142.616 106.116 143.152 109.538 143.956L116.931 145.701C120.292 146.495 122.868 147.587 124.592 148.944C127.332 151.116 128.725 154.266 128.725 158.32L128.718 158.323Z" fill="#F9F7F0"/>
<path d="M204.34 131.412C200.987 127.966 196.12 126.218 189.869 126.218C183.617 126.218 178.758 127.966 175.401 131.412C170.96 135.46 168.707 141.544 168.707 149.508C168.707 157.471 170.956 163.401 175.394 167.6C178.748 171.049 183.617 172.801 189.865 172.801C196.114 172.801 200.99 171.052 204.344 167.596C208.761 163.398 211 157.313 211 149.508C211 141.702 208.757 135.46 204.337 131.412H204.34ZM197.413 159.894C195.544 162.25 193.079 163.391 189.872 163.391C186.666 163.391 184.183 162.247 182.283 159.887C180.359 157.499 179.386 154.008 179.386 149.504C179.386 145 180.359 141.51 182.283 139.122C184.183 136.765 186.666 135.618 189.872 135.618C193.079 135.618 195.544 136.765 197.413 139.129C199.313 141.53 200.277 145.017 200.277 149.501C200.277 153.984 199.313 157.499 197.413 159.89V159.894Z" fill="#F9F7F0"/>
<path d="M166.79 127.506H130.748V136.909H166.79V127.506Z" fill="#F9F7F0"/>
<path d="M154.184 141.612V171.636H143.433V147.676L154.184 136.906V141.609V141.612Z" fill="#F9F7F0"/>
</svg>
