<?xml version="1.0" encoding="UTF-8"?>
<svg xmlns="http://www.w3.org/2000/svg" version="1.1" viewBox="0 0 850.4 850.4">
  <defs>
    <style>
      .cls-1 {
        fill: #fff;
      }
    </style>
  </defs>
  <!-- Generator: Adobe Illustrator 28.7.7, SVG Export Plug-In . SVG Version: 1.2.0 Build 194)  -->
  <g>
    <g id="Layer_1">
      <g>
        <g>
          <rect class="cls-1" x="487.5" y="278.7" width="95.2" height="97.6"/>
          <path class="cls-1" d="M777.4,369.1v199.4c0,1.1,0,2.1,0,3.2-1.1,0-2.3.1-3.4.2h-91.2v-135.1c0-.5,0-1,0-1.5.1-3.2.1-6.5,0-9.7v-49.3h0s-91.8,0-91.8,0c-2.8,0-5.5,0-8.3,0,2-1.9,3.9-3.8,5.9-5.8l90.3-90.3c.5-.6,1.1-1.1,1.6-1.7.3,0,.8.1,1.3.2,12.9,1.8,23.9,3.7,26.6,4.5,14.5,4.6,27.6,12.4,38.4,22.7,17.1,16.2,28.4,38.4,30.5,63.2Z"/>
          <path class="cls-1" d="M582.7,417.9v154h-95.2v-100.4l95.2-95.2v41.6Z"/>
        </g>
        <g>
          <path class="cls-1" d="M132.5,428.3c1.1,2.1,1.6,4.7,1.6,8s-.4,4.7-1.2,6.6c-.8,1.9-1.9,3.5-3.4,4.8-1.5,1.3-3.2,2.2-5.3,2.9-2,.7-4.3,1-6.8,1h-5.8v-31h8c1.1,0,2.5.2,4.1.6,1.6.4,3.2,1.2,4.8,2.3,1.6,1.1,2.9,2.7,3.9,4.8Z"/>
          <path class="cls-1" d="M81.7,391.2v87.4h376.2l87.4-87.4H81.7ZM142.3,446.9c-1.3,3-3.2,5.5-5.5,7.6-2.3,2.1-5,3.7-8,4.8-3,1.1-6.2,1.7-9.6,1.7h-17.4v-49.9h14.9c5,0,9.3.7,12.8,2.2,3.5,1.5,6.4,3.5,8.5,6,2.1,2.5,3.7,5.3,4.7,8.3,1,3.1,1.5,6.2,1.5,9.3s-.7,7-2,10ZM189.1,461h-35v-49.9h34v9.5h-24.2v10.6h21.4v9.5h-21.4v10.8h25.1v9.5ZM232.5,461h-33.3v-49.9h9.8v40.4h23.5v9.5ZM252.5,461h-9.8v-49.9h9.8v49.9ZM310.3,463h-.3l-34.9-31.5.2,29.5h-10v-51.9h.4l34.8,32-.2-30.1h9.9v51.9ZM358.2,461h-35v-49.9h34v9.5h-24.2v10.6h21.4v9.5h-21.4v10.8h25.1v9.5ZM385.3,469.4c-.4,1.6-1.1,3.1-2,4.6-.9,1.5-2.1,2.7-3.4,3.6l-4.9-3.3c1-1,1.7-2.3,2.1-4.2.4-1.8.5-3.5.2-5.1h8.3c.3,1.3.2,2.8-.2,4.4ZM378.2,427.9c.9.9,2.1,1.7,3.6,2.5s3,1.4,4.6,2c1.5.5,2.9,1.2,4.3,1.9,1.4.8,2.7,1.7,3.8,2.8,1.1,1.1,2,2.5,2.7,4.1.7,1.7,1,3.7,1,6.1s-.7,4.9-2,7c-1.3,2.2-3.2,3.9-5.8,5.3-2.5,1.3-5.6,2-9.4,2s-3.8-.2-5.8-.6c-2-.4-3.9-1-5.8-1.8-1.9-.8-3.7-1.8-5.5-3l4.3-7.7c1.2.9,2.5,1.6,3.8,2.3,1.4.7,2.8,1.2,4.2,1.5,1.4.4,2.7.5,3.9.5s2.4-.2,3.6-.5c1.2-.3,2.2-.9,3-1.7.8-.8,1.2-1.9,1.2-3.4s-.3-1.9-1-2.7c-.7-.8-1.5-1.6-2.6-2.2-1.1-.7-2.3-1.3-3.6-1.8-1.5-.6-3.1-1.3-4.7-2-1.6-.8-3.2-1.7-4.6-2.8-1.4-1.1-2.6-2.5-3.5-4.1-.9-1.6-1.3-3.7-1.3-6.1s.7-5.4,1.9-7.5c1.3-2.1,3.1-3.8,5.5-5.1,2.4-1.2,5.1-1.9,8.1-2.1,4,0,7.3.5,9.8,1.4,2.5,1,4.8,2.1,6.8,3.4l-3.7,7.5c-1.9-1-3.8-1.9-5.8-2.6-2-.7-3.8-1-5.5-1s-3.8.4-5,1.3c-1.2.9-1.8,2.1-1.8,3.9s.5,2.2,1.4,3.2ZM438.1,420.6h-12.1v40.4h-9.8v-40.4h-11.7v-9.5h33.6v9.5ZM457.4,461h-9.8v-49.9h9.8v49.9Z"/>
        </g>
        <g>
          <path class="cls-1" d="M100.2,491.6h-.4l-17.8,41h7.7l3.2-7.7h13.1l3,7.7h9l-17.8-41ZM95.6,518.4l4-9.6,3.8,9.6h-7.8Z"/>
          <path class="cls-1" d="M149.2,499.4c-1.2-2-2.9-3.5-5.2-4.6-2.3-1.1-5-1.6-8.3-1.6h-12v39.5h7.8v-12.5h5.6c2.6,0,4.7-.4,6.5-1.2,1.8-.8,3.2-1.9,4.2-3.2,1.1-1.3,1.8-2.8,2.3-4.4.5-1.6.7-3.3.7-4.9,0-2.7-.6-5.1-1.8-7.1ZM142.9,508.4c-.2.7-.5,1.3-1,2-.4.6-1.1,1.1-1.8,1.6-.8.4-1.8.6-3,.6h-5.5v-11.9h5.6c1.4,0,2.4.2,3.3.7.8.5,1.4,1,1.8,1.7.4.7.7,1.4.8,2,.1.7.2,1.2.2,1.6s0,1.1-.3,1.8Z"/>
          <path class="cls-1" d="M167.7,491.6h-.4l-17.8,41h7.7l3.2-7.7h13.1l3,7.7h9l-17.8-41ZM163,518.4l4-9.6,3.8,9.6h-7.8Z"/>
          <path class="cls-1" d="M212.4,518.3c1.3-.7,2.3-1.6,3.2-2.6,1.1-1.3,1.9-2.8,2.4-4.4.5-1.6.7-3.2.7-4.8s-.3-3.9-1-5.5c-.7-1.6-1.7-3-3-4.2-1.3-1.2-2.9-2.1-4.9-2.7-1.9-.6-4.1-.9-6.6-.9h-12v39.5h7.8v-12.6h5.2l8.3,12.6h9.1l-9.2-14.4ZM210.3,508.6c-.2.7-.5,1.3-1,1.9-.4.6-1.1,1.1-1.9,1.5-.8.4-1.8.6-2.9.6h-5.5v-11.9h5.6c1.4,0,2.4.2,3.2.7.8.5,1.4,1,1.8,1.7.4.7.7,1.4.8,2,.1.7.2,1.2.2,1.6s-.1,1.2-.3,1.9Z"/>
          <polygon class="cls-1" points="224.5 500.7 233.8 500.7 233.8 532.6 241.6 532.6 241.6 500.7 251.2 500.7 251.2 493.2 224.5 493.2 224.5 500.7"/>
          <polygon class="cls-1" points="278.8 520 258.7 491.5 258.7 491.5 258.7 532.6 266.2 532.6 266.2 515 278.6 532.1 278.7 532.1 291.6 513.8 291.6 532.6 299.3 532.6 299.3 491.5 299.2 491.5 278.8 520"/>
          <polygon class="cls-1" points="317.3 516.6 334.3 516.6 334.3 509.1 317.3 509.1 317.3 500.7 336.5 500.7 336.5 493.2 309.5 493.2 309.5 532.6 337.2 532.6 337.2 525.1 317.3 525.1 317.3 516.6"/>
          <polygon class="cls-1" points="373.2 517 345.6 491.6 345.3 491.6 345.3 532.6 353.1 532.6 353 509.3 380.6 534.3 380.8 534.3 380.8 493.2 373 493.2 373.2 517"/>
          <polygon class="cls-1" points="388.3 500.7 397.6 500.7 397.6 532.6 405.4 532.6 405.4 500.7 415 500.7 415 493.2 388.3 493.2 388.3 500.7"/>
          <path class="cls-1" d="M443.2,513.7c-.9-.9-1.9-1.6-3-2.2-1.1-.6-2.3-1.1-3.4-1.5-1.3-.5-2.5-1-3.6-1.6-1.2-.6-2.1-1.2-2.8-2-.7-.7-1.1-1.6-1.1-2.5,0-1.4.5-2.4,1.4-3.1,1-.7,2.3-1,4-1s2.8.3,4.4.8c1.6.5,3.1,1.2,4.6,2l3-6c-1.6-1-3.4-1.9-5.3-2.7-2-.8-4.6-1.1-7.8-1.1-2.4.1-4.6.7-6.4,1.6-1.9,1-3.3,2.3-4.3,4-1,1.7-1.5,3.7-1.5,6s.3,3.5,1,4.8c.7,1.3,1.6,2.4,2.7,3.3,1.1.9,2.3,1.6,3.6,2.2,1.3.6,2.5,1.1,3.8,1.6,1,.4,2,.9,2.9,1.4.9.5,1.6,1.1,2.1,1.8.5.6.8,1.4.8,2.1,0,1.1-.3,2-.9,2.7-.6.6-1.4,1.1-2.4,1.4-.9.3-1.9.4-2.8.4s-2-.1-3.1-.4c-1.1-.3-2.2-.7-3.3-1.2-1.1-.5-2.1-1.1-3-1.8l-3.4,6.1c1.4,1,2.8,1.8,4.3,2.4,1.5.6,3,1.1,4.6,1.4,1.6.3,3.1.5,4.6.5,2.9,0,5.4-.5,7.4-1.6,2-1.1,3.5-2.4,4.6-4.2,1-1.7,1.6-3.6,1.6-5.6s-.3-3.5-.8-4.8c-.5-1.3-1.3-2.4-2.1-3.3Z"/>
        </g>
      </g>
    </g>
  </g>
</svg>