<svg width="286" height="233" viewBox="0 0 286 233" fill="none" xmlns="http://www.w3.org/2000/svg">
<path d="M117.415 0.0926514H69.3807V49.3359H117.415V0.0926514Z" fill="white"/>
<path d="M215.637 45.718V146.298C215.642 146.836 215.651 147.373 215.656 147.915C215.082 147.943 214.512 147.971 213.937 147.999H167.914V79.8223C167.923 79.5768 167.927 79.3359 167.937 79.0904C167.988 77.4644 168.011 75.8291 167.937 74.1985V49.3313H121.603C120.208 49.3313 118.814 49.3313 117.415 49.3313C118.411 48.3631 119.402 47.3949 120.398 46.4267L165.968 0.861642C166.237 0.574428 166.51 0.287214 166.779 0C166.931 0.0185299 167.163 0.0509573 167.441 0.0926496C173.964 1.00525 179.49 1.93638 180.885 2.37183C188.218 4.68344 194.819 8.63958 200.262 13.8094C208.865 21.9858 214.567 33.1871 215.642 45.7133L215.637 45.718Z" fill="white"/>
<path d="M117.415 70.3165V148.003H69.3807V97.3748L117.415 49.3406V70.3211V70.3165Z" fill="white"/>
<path d="M54.2093 197.529V230.54H38.445V196.709C38.445 190.446 33.3631 185.369 27.1047 185.369H15.0787V230.545H0V170.128H26.8035C41.961 170.128 54.2093 182.404 54.2093 197.534V197.529Z" fill="white"/>
<path d="M108.956 177.193C104.425 172.546 97.8473 170.188 89.4115 170.188C80.9758 170.188 74.393 172.546 69.8624 177.193C63.8634 182.65 60.8198 190.854 60.8198 201.592C60.8198 212.33 63.8587 220.326 69.8532 225.986C74.3837 230.637 80.9665 233 89.4069 233C97.8473 233 104.43 230.642 108.961 225.982C114.927 220.321 117.957 212.117 117.957 201.592C117.957 191.067 114.927 182.65 108.951 177.193H108.956ZM102.489 209.662C101.845 212.001 100.882 213.984 99.5984 215.596C97.069 218.774 93.7383 220.312 89.4115 220.312C85.0848 220.312 81.7216 218.769 79.1598 215.587C76.561 212.367 75.2408 207.66 75.2408 201.587C75.2408 195.514 76.5564 190.807 79.1598 187.588C81.7262 184.41 85.0755 182.863 89.4115 182.863C93.7475 182.863 97.069 184.41 99.5984 187.597C102.165 190.835 103.462 195.537 103.462 201.583C103.462 204.617 103.138 207.318 102.489 209.657V209.662Z" fill="white"/>
<path d="M173.88 213.479C173.88 219.052 171.698 223.74 167.399 227.418C163.156 231.045 157.143 232.884 149.523 232.884C141.902 232.884 135.556 231.082 131.048 227.529C126.448 223.902 124.118 218.866 124.118 212.552V211.246H137.9L138.057 212.371C138.386 214.711 139.021 216.453 139.933 217.541C141.634 219.561 144.705 220.585 149.059 220.585C151.765 220.585 153.965 220.298 155.605 219.732C158.473 218.727 159.811 217.027 159.811 214.368C159.811 212.941 159.214 211.908 157.94 211.116C156.425 210.203 153.9 209.36 150.458 208.624L144.293 207.271C138.011 205.881 133.777 204.39 131.354 202.708C127.171 199.841 125.045 195.338 125.045 189.325C125.045 183.872 127.088 179.272 131.104 175.659C135.083 172.083 140.939 170.271 148.499 170.271C154.827 170.271 160.312 171.958 164.805 175.293C169.405 178.703 171.847 183.696 172.074 190.131L172.12 191.479H158.121L158.046 190.251C157.866 187.3 156.596 185.267 154.169 184.044C152.464 183.191 150.282 182.756 147.679 182.756C144.811 182.756 142.528 183.307 140.878 184.391C139.364 185.392 138.655 186.689 138.655 188.473C138.655 190.024 139.317 191.104 140.744 191.877C141.499 192.299 143.348 193.022 147.971 194.106L157.958 196.459C162.498 197.529 165.977 199.002 168.307 200.832C172.009 203.76 173.889 208.008 173.889 213.474L173.88 213.479Z" fill="white"/>
<path d="M276.036 177.193C271.505 172.546 264.932 170.188 256.487 170.188C248.042 170.188 241.477 172.546 236.942 177.193C230.943 182.65 227.9 190.854 227.9 201.592C227.9 212.33 230.939 220.326 236.933 225.986C241.464 230.637 248.042 233 256.482 233C264.922 233 271.51 230.642 276.04 225.982C282.007 220.321 285.032 212.117 285.032 201.592C285.032 191.067 282.002 182.65 276.031 177.193H276.036ZM266.678 215.596C264.153 218.774 260.823 220.312 256.491 220.312C252.16 220.312 248.806 218.769 246.24 215.587C243.641 212.367 242.325 207.66 242.325 201.587C242.325 195.514 243.641 190.807 246.24 187.588C248.806 184.41 252.16 182.863 256.491 182.863C260.823 182.863 264.153 184.41 266.678 187.597C269.244 190.835 270.546 195.537 270.546 201.583C270.546 207.628 269.244 212.367 266.678 215.591V215.596Z" fill="white"/>
<path d="M225.31 171.925H176.623V184.604H225.31V171.925Z" fill="white"/>
<path d="M208.281 190.946V231.429H193.758V199.122L208.281 184.6V190.941V190.946Z" fill="white"/>
</svg>
