<!DOCTYPE svg PUBLIC "-//W3C//DTD SVG 1.1//EN" "http://www.w3.org/Graphics/SVG/1.1/DTD/svg11.dtd">
<!-- Uploaded to: SVG Repo, www.svgrepo.com, Transformed by: SVG Repo Mixer Tools -->
<svg width="800px" height="800px" viewBox="0 0 24 24" id="Layer_1" data-name="Layer 1" xmlns="http://www.w3.org/2000/svg" fill="#c56d44" stroke="#c56d44">
<g id="SVGRepo_bgCarrier" stroke-width="0"/>
<g id="SVGRepo_tracerCarrier" stroke-linecap="round" stroke-linejoin="round"/>
<g id="SVGRepo_iconCarrier">
<defs>
<style>.cls-1{fill:none;stroke:#c56d44;stroke-miterlimit:10;stroke-width:1.89px;}</style>
</defs>
<path class="cls-1" d="M12.94,1.61V15.78a2.83,2.83,0,0,1-2.83,2.83h0a2.83,2.83,0,0,1-2.83-2.83h0a2.84,2.84,0,0,1,2.83-2.84h0V9.17h0A6.61,6.61,0,0,0,3.5,15.78h0a6.61,6.61,0,0,0,6.61,6.61h0a6.61,6.61,0,0,0,6.61-6.61V9.17l.2.1a8.08,8.08,0,0,0,3.58.84h0V6.33l-.11,0a4.84,4.84,0,0,1-3.67-4.7H12.94Z"/>
</g>
</svg>